<svg viewBox="0 0 128 128" xmlns="http://www.w3.org/2000/svg" id="technology">
  <defs>
  <style>
    @media(prefers-color-scheme: dark) {
      :root { --color-logo-shape: #000000; --color-logo-base: #ffffff; }
    }
    body[data-color-scheme="dark"] {
      --color-logo-shape: #000000; --color-logo-base: #ffffff;
    }
  </style>
  <path id="surface" d="m 6,47 l 58,-47 58,47 -58,45 z"/>
  <path id="strut"   d="m 6,47 v 12 l 58,45 v -12 z"/>
  <path id="shape"   d="m 84,37 -13.5,2.8 3.6,-10.6 c 1.6,-4.8 -7.5,-6.7 -9.2,-2 l -3.6,10.6 -9.9,-7.8 c -4.4,-3.5 -11.1,1.8 -6.7,5.3 l 9.9,7.8 -13.5,2.8 c -6,1.3 -3.5,8.5 2.5,7.2 l 13.5,-2.8 -3.6,10.6 c -1.5,4.5 7.5,7 9.2,2 l 3.6,-10.6 9.9,7.8 c 4.4,3.5 11.1,-1.8 6.7,-5.3 l -9.9,-7.8 13.5,-2.8 c 6,-1.2 3.5,-8.5 -2.5,-7.2 z"/>
  <mask id="fade"><path d="m84,37-13.5,2.8,3.6-10.6c1.6-4.8-7.5-6.7-9.2-2l-3.6,10.6-9.9-7.8c-4.4-3.5-11.1,1.8-6.7,5.3l9.9,7.8-13.5,2.8c-6,1.3-3.5,8.5,2.5,7.2l13.5-2.8-3.6,10.6c-1.5,4.5,7.5,7,9.2,2l3.6-10.6,9.9,7.8c4.4,3.5,11.1-1.8,6.7-5.3l-9.9-7.8,13.5-2.8c6-1.2,3.5-8.5-2.5-7.2zM6,47l58-47,58,47-58,45zm116,0v12l-58,45v-12zm0,12v12l-58,45v-12zm0,12v12l-58,45v-12zM6,47v12l58,45v-12zm0,12v12l58,45v-12zm0,12v12l58,45v-12z" style="fill:#fff"/></mask>
  </defs>
  <use href="#strut" fill="#9ee0ff"/>
  <use href="#strut" fill="#6bd0ff" y="12"/>
  <use href="#strut" fill="#38c0ff" y="24"/>
  <g transform="matrix(-1 0 0 1 128 0)">
    <use href="#strut" fill="#f29eff"/>
    <use href="#strut" fill="#eb6bff" y="12"/>
    <use href="#strut" fill="#e438ff" y="24"/>
  </g>
  <use href="#surface" style="fill: var(--color-logo-base, #000000);"/>
  <use href="#shape" style="fill: var(--color-logo-shape, #ffffff);"/>
  <rect width="128" height="128" mask="url(#fade)" style="fill: var(--color-logo-shape, #ffffff); opacity: .45;"/>
</svg>
